<?xml version="1.0" encoding="UTF-8" standalone="no"?>
<svg
   xmlns:ooo="http://xml.openoffice.org/svg/export"
   xmlns:dc="http://purl.org/dc/elements/1.1/"
   xmlns:cc="http://creativecommons.org/ns#"
   xmlns:rdf="http://www.w3.org/1999/02/22-rdf-syntax-ns#"
   xmlns:svg="http://www.w3.org/2000/svg"
   xmlns="http://www.w3.org/2000/svg"
   xmlns:sodipodi="http://sodipodi.sourceforge.net/DTD/sodipodi-0.dtd"
   xmlns:inkscape="http://www.inkscape.org/namespaces/inkscape"
   version="1.2"
   width="297mm"
   height="210mm"
   viewBox="0 0 29700 21000"
   preserveAspectRatio="xMidYMid"
   fill-rule="evenodd"
   stroke-width="28.222"
   stroke-linejoin="round"
   xml:space="preserve"
   id="svg106"
   sodipodi:docname="internal_part_system.svg"
   inkscape:version="0.92.4 (5da689c313, 2019-01-14)"><metadata
   id="metadata110"><rdf:RDF><cc:Work
       rdf:about=""><dc:format>image/svg+xml</dc:format><dc:type
         rdf:resource="http://purl.org/dc/dcmitype/StillImage" /><dc:title></dc:title></cc:Work></rdf:RDF></metadata><sodipodi:namedview
   pagecolor="#ffffff"
   bordercolor="#666666"
   borderopacity="1"
   objecttolerance="10"
   gridtolerance="10"
   guidetolerance="10"
   inkscape:pageopacity="0"
   inkscape:pageshadow="2"
   inkscape:window-width="1366"
   inkscape:window-height="708"
   id="namedview108"
   showgrid="false"
   showguides="true"
   inkscape:guide-bbox="true"
   inkscape:zoom="5.817847"
   inkscape:cx="968.46797"
   inkscape:cy="666.57182"
   inkscape:window-x="0"
   inkscape:window-y="0"
   inkscape:window-maximized="1"
   inkscape:current-layer="svg106"><sodipodi:guide
     position="2127.6733,18586"
     orientation="1,0"
     id="guide3879"
     inkscape:locked="false"
     inkscape:label=""
     inkscape:color="rgb(0,0,255)" /><sodipodi:guide
     position="8732.6788,18586"
     orientation="1,0"
     id="guide3887"
     inkscape:locked="false"
     inkscape:label=""
     inkscape:color="rgb(0,0,255)" /><sodipodi:guide
     position="16911.664,18576"
     orientation="1,0"
     id="guide3889"
     inkscape:locked="false"
     inkscape:label=""
     inkscape:color="rgb(0,0,255)" /><sodipodi:guide
     position="23642.664,18569"
     orientation="1,0"
     id="guide3891"
     inkscape:locked="false"
     inkscape:label=""
     inkscape:color="rgb(0,0,255)" /><sodipodi:guide
     position="20340.664,8679.0001"
     orientation="1,0"
     id="guide3893"
     inkscape:locked="false"
     inkscape:label=""
     inkscape:color="rgb(0,0,255)" /><sodipodi:guide
     position="5430.6788,8679.0001"
     orientation="1,0"
     id="guide3895"
     inkscape:locked="false"
     inkscape:label=""
     inkscape:color="rgb(0,0,255)" /><sodipodi:guide
     position="6354.9724,16941.349"
     orientation="0,1"
     id="guide3935"
     inkscape:locked="false" /><sodipodi:guide
     position="1093.3624,7048.9712"
     orientation="1,0"
     id="guide3985"
     inkscape:locked="false" /><sodipodi:guide
     position="5978.1196,7987.9764"
     orientation="1,0"
     id="guide4097"
     inkscape:locked="false" /><sodipodi:guide
     position="23971.39,18011.513"
     orientation="1,0"
     id="guide188"
     inkscape:locked="false" /></sodipodi:namedview>
 <defs
   class="ClipPathGroup"
   id="defs8">
  <clipPath
   id="presentation_clip_path"
   clipPathUnits="userSpaceOnUse">
   <rect
   x="0"
   y="0"
   width="29700"
   height="21000"
   id="rect2" />
  </clipPath>
  <clipPath
   id="presentation_clip_path_shrink"
   clipPathUnits="userSpaceOnUse">
   <rect
   x="29"
   y="21"
   width="29641"
   height="20958"
   id="rect5" />
  </clipPath>
 </defs>
 <defs
   class="TextShapeIndex"
   id="defs12">
  <g
   ooo:slide="id1"
   ooo:id-list="id3 id4 id5 id6 id7 id8 id9"
   id="g10" />
 </defs>
 <defs
   class="EmbeddedBulletChars"
   id="defs44">
  <g
   id="bullet-char-template-57356"
   transform="scale(0.00048828125,-0.00048828125)">
   <path
   d="M 580,1141 L 1163,571 580,0 -4,571 580,1141 Z"
   id="path14" />
  </g>
  <g
   id="bullet-char-template-57354"
   transform="scale(0.00048828125,-0.00048828125)">
   <path
   d="M 8,1128 L 1137,1128 1137,0 8,0 8,1128 Z"
   id="path17" />
  </g>
  <g
   id="bullet-char-template-10146"
   transform="scale(0.00048828125,-0.00048828125)">
   <path
   d="M 174,0 L 602,739 174,1481 1456,739 174,0 Z M 1358,739 L 309,1346 659,739 1358,739 Z"
   id="path20" />
  </g>
  <g
   id="bullet-char-template-10132"
   transform="scale(0.00048828125,-0.00048828125)">
   <path
   d="M 2015,739 L 1276,0 717,0 1260,543 174,543 174,936 1260,936 717,1481 1274,1481 2015,739 Z"
   id="path23" />
  </g>
  <g
   id="bullet-char-template-10007"
   transform="scale(0.00048828125,-0.00048828125)">
   <path
   d="M 0,-2 C -7,14 -16,27 -25,37 L 356,567 C 262,823 215,952 215,954 215,979 228,992 255,992 264,992 276,990 289,987 310,991 331,999 354,1012 L 381,999 492,748 772,1049 836,1024 860,1049 C 881,1039 901,1025 922,1006 886,937 835,863 770,784 769,783 710,716 594,584 L 774,223 C 774,196 753,168 711,139 L 727,119 C 717,90 699,76 672,76 641,76 570,178 457,381 L 164,-76 C 142,-110 111,-127 72,-127 30,-127 9,-110 8,-76 1,-67 -2,-52 -2,-32 -2,-23 -1,-13 0,-2 Z"
   id="path26" />
  </g>
  <g
   id="bullet-char-template-10004"
   transform="scale(0.00048828125,-0.00048828125)">
   <path
   d="M 285,-33 C 182,-33 111,30 74,156 52,228 41,333 41,471 41,549 55,616 82,672 116,743 169,778 240,778 293,778 328,747 346,684 L 369,508 C 377,444 397,411 428,410 L 1163,1116 C 1174,1127 1196,1133 1229,1133 1271,1133 1292,1118 1292,1087 L 1292,965 C 1292,929 1282,901 1262,881 L 442,47 C 390,-6 338,-33 285,-33 Z"
   id="path29" />
  </g>
  <g
   id="bullet-char-template-9679"
   transform="scale(0.00048828125,-0.00048828125)">
   <path
   d="M 813,0 C 632,0 489,54 383,161 276,268 223,411 223,592 223,773 276,916 383,1023 489,1130 632,1184 813,1184 992,1184 1136,1130 1245,1023 1353,916 1407,772 1407,592 1407,412 1353,268 1245,161 1136,54 992,0 813,0 Z"
   id="path32" />
  </g>
  <g
   id="bullet-char-template-8226"
   transform="scale(0.00048828125,-0.00048828125)">
   <path
   d="M 346,457 C 273,457 209,483 155,535 101,586 74,649 74,723 74,796 101,859 155,911 209,963 273,989 346,989 419,989 480,963 531,910 582,859 608,796 608,723 608,648 583,586 532,535 482,483 420,457 346,457 Z"
   id="path35" />
  </g>
  <g
   id="bullet-char-template-8211"
   transform="scale(0.00048828125,-0.00048828125)">
   <path
   d="M -4,459 L 1135,459 1135,606 -4,606 -4,459 Z"
   id="path38" />
  </g>
  <g
   id="bullet-char-template-61548"
   transform="scale(0.00048828125,-0.00048828125)">
   <path
   d="M 173,740 C 173,903 231,1043 346,1159 462,1274 601,1332 765,1332 928,1332 1067,1274 1183,1159 1299,1043 1357,903 1357,740 1357,577 1299,437 1183,322 1067,206 928,148 765,148 601,148 462,206 346,322 231,437 173,577 173,740 Z"
   id="path41" />
  </g>
 </defs>
 <g
   id="g49">
  <g
   id="id2"
   class="Master_Slide">
   <g
   id="bg-id2"
   class="Background" />
   <g
   id="bo-id2"
   class="BackgroundObjects" />
  </g>
 </g>
 <g
   class="SlideGroup"
   id="g104">
  <g
   id="g102">
   <g
   id="container-id1">
    <g
   id="id1"
   class="Slide"
   clip-path="url(#presentation_clip_path)">
     <g
   class="Page"
   id="g98">
      <g
   class="com.sun.star.drawing.CustomShape"
   id="g56">
       <g
   id="id3">
        <rect
   class="BoundingBox"
   x="1916"
   y="2414"
   width="4448"
   height="7720"
   id="rect51"
   stroke="none"
   fill="none" />
        <path
   d="M 4140,10132 L 1917,10132 1917,2415 6362,2415 6362,10132 4140,10132 Z"
   id="path53"
   style=""
   stroke="rgb(0,0,0)"
   fill="none" />
       </g>
      </g>
      <g
   class="com.sun.star.drawing.CustomShape"
   id="g63">
       <g
   id="id4">
        <rect
   class="BoundingBox"
   x="8520"
   y="2413"
   width="4448"
   height="7749"
   id="rect58"
   stroke="none"
   fill="none" />
        <path
   d="M 10744,10160 L 8521,10160 8521,2414 12966,2414 12966,10160 10744,10160 Z"
   id="path60"
   stroke="rgb(0,0,0)"
   fill="none" />
       </g>
      </g>
      <g
   class="com.sun.star.drawing.CustomShape"
   id="g70">
       <g
   id="id5">
        <rect
   class="BoundingBox"
   x="16699"
   y="2423"
   width="4448"
   height="7738"
   id="rect65"
   stroke="none"
   fill="none" />
        <path
   d="M 18923,10159 L 16700,10159 16700,2424 21145,2424 21145,10159 18923,10159 Z"
   id="path67"
   stroke="rgb(0,0,0)"
   fill="none" />
       </g>
      </g>
      <g
   class="com.sun.star.drawing.TextShape"
   id="g75">
       <g
   id="id6">
        <rect
   class="BoundingBox"
   x="6003"
   y="3995"
   width="548"
   height="1262"
   id="rect72"
   stroke="none"
   fill="none" />
       </g>
      </g>
      <g
   class="com.sun.star.drawing.CustomShape"
   id="g82">
       <g
   id="id7">
        <rect
   class="BoundingBox"
   x="5218"
   y="12320"
   width="4448"
   height="7922"
   id="rect77"
   stroke="none"
   fill="none" />
        <path
   d="M 7442,20240 L 5219,20240 5219,12321 9664,12321 9664,20240 7442,20240 Z"
   id="path79"
   stroke="rgb(0,0,0)"
   fill="none" />
       </g>
      </g>
      <g
   class="com.sun.star.drawing.CustomShape"
   id="g89">
       <g
   id="id8">
        <rect
   class="BoundingBox"
   x="23430"
   y="2430"
   width="4448"
   height="7738"
   id="rect84"
   stroke="none"
   fill="none" />
        <path
   d="M 25654,10166 L 23431,10166 23431,2431 27876,2431 27876,10166 25654,10166 Z"
   id="path86"
   stroke="rgb(0,0,0)"
   fill="none" />
       </g>
      </g>
      <g
   class="com.sun.star.drawing.CustomShape"
   id="g96">
       <g
   id="id9">
        <rect
   class="BoundingBox"
   x="20128"
   y="12320"
   width="4448"
   height="7922"
   id="rect91"
   stroke="none"
   fill="none" />
        <path
   d="M 22352,20240 L 20129,20240 20129,12321 24574,12321 24574,20240 22352,20240 Z"
   id="path93"
   stroke="rgb(0,0,0)"
   fill="none" />
       </g>
      </g>
     </g>
    </g>
   </g>
  </g>
 </g>
<text
   xml:space="preserve"
   style="font-style:normal;font-weight:normal;font-size:564.44444584px;line-height:1.25;font-family:sans-serif;letter-spacing:0px;word-spacing:0px;fill:#000000;fill-opacity:1;stroke:none;stroke-width:746.70709229;"
   x="2579.7412"
   y="1903.6224"
   id="text3821"><tspan
     sodipodi:role="line"
     id="tspan3819"
     x="2579.7412"
     y="2839.9995"
     style="stroke-width:746.70709229;font-size:564.44444584px;" /></text>

<text
   xml:space="preserve"
   style="font-style:normal;font-weight:normal;font-size:564.44444584px;line-height:1.25;font-family:sans-serif;letter-spacing:0px;word-spacing:0px;fill:#000000;fill-opacity:1;stroke:none;stroke-width:746.70709229;"
   x="3523.5491"
   y="1935.0828"
   id="text3825"><tspan
     sodipodi:role="line"
     id="tspan3823"
     x="3523.5491"
     y="2871.4597"
     style="stroke-width:746.70709229;font-size:564.44444584px;" /></text>

<text
   xml:space="preserve"
   style="font-style:normal;font-weight:normal;font-size:1058.33337402px;line-height:1.25;font-family:sans-serif;letter-spacing:0px;word-spacing:0px;fill:#000000;fill-opacity:0;stroke:none;stroke-width:746.70709229;"
   x="4939.2607"
   y="1463.179"
   id="text3829"><tspan
     sodipodi:role="line"
     id="tspan3827"
     x="4939.2607"
     y="1463.179"
     style="stroke-width:746.70709229;font-size:564.44444584px;fill:#000000;fill-opacity:0;">DS</tspan></text>

<text
   xml:space="preserve"
   style="font-style:normal;font-weight:normal;font-size:564.44445801px;line-height:1.25;font-family:sans-serif;letter-spacing:0px;word-spacing:0px;fill:#000000;fill-opacity:1;stroke:none;stroke-width:746.70709229"
   x="4593.1978"
   y="1526.0995"
   id="text3833"><tspan
     sodipodi:role="line"
     id="tspan3831"
     x="4593.1978"
     y="2025.5005"
     style="stroke-width:746.70709229" /></text>

<text
   xml:space="preserve"
   style="font-style:normal;font-weight:normal;font-size:564.44445801px;line-height:1.25;font-family:sans-serif;letter-spacing:0px;word-spacing:0px;fill:#000000;fill-opacity:1;stroke:none;stroke-width:746.70709229"
   x="3051.645"
   y="2221.7144"
   id="text3837"><tspan
     sodipodi:role="line"
     id="tspan3835"
     x="3051.645"
     y="2221.7144"
     style="stroke-width:746.70709229">ACTION</tspan></text>

<text
   xml:space="preserve"
   style="font-style:normal;font-weight:normal;font-size:564.44445801px;line-height:1.25;font-family:sans-serif;letter-spacing:0px;word-spacing:0px;fill:#000000;fill-opacity:1;stroke:none;stroke-width:746.70709229"
   x="8745.9521"
   y="2223.6228"
   id="text3841"><tspan
     sodipodi:role="line"
     id="tspan3839"
     x="8745.9521"
     y="2223.6228"
     style="stroke-width:746.70709229">SYSTEM_INFO</tspan></text>

<text
   xml:space="preserve"
   style="font-style:normal;font-weight:normal;font-size:564.44445801px;line-height:1.25;font-family:sans-serif;letter-spacing:0px;word-spacing:0px;fill:#000000;fill-opacity:1;stroke:none;stroke-width:746.70709229"
   x="18058.189"
   y="2228.1482"
   id="text3845"><tspan
     sodipodi:role="line"
     id="tspan3843"
     x="18058.189"
     y="2228.1482"
     style="stroke-width:746.70709229">MENU</tspan></text>

<text
   xml:space="preserve"
   style="font-style:normal;font-weight:normal;font-size:564.44445801px;line-height:1.25;font-family:sans-serif;letter-spacing:0px;word-spacing:0px;fill:#000000;fill-opacity:1;stroke:none;stroke-width:746.70709229"
   x="24539.004"
   y="2220.1914"
   id="text3849"><tspan
     sodipodi:role="line"
     id="tspan3847"
     x="24539.004"
     y="2220.1914"
     style="stroke-width:746.70709229">SCREEN</tspan></text>

<text
   xml:space="preserve"
   style="font-style:normal;font-weight:normal;font-size:564.44445801px;line-height:1.25;font-family:sans-serif;letter-spacing:0px;word-spacing:0px;fill:#000000;fill-opacity:1;stroke:none;stroke-width:746.70709229"
   x="21180.621"
   y="12112.477"
   id="text3853"><tspan
     sodipodi:role="line"
     id="tspan3851"
     x="21180.621"
     y="12112.477"
     style="stroke-width:746.70709229">DISPLAY</tspan></text>

<text
   xml:space="preserve"
   style="font-style:normal;font-weight:normal;font-size:564.44445801px;line-height:1.25;font-family:sans-serif;letter-spacing:0px;word-spacing:0px;fill:#000000;fill-opacity:1;stroke:none;stroke-width:746.70709229"
   x="5222.4028"
   y="12122.646"
   id="text3857"><tspan
     sodipodi:role="line"
     id="tspan3855"
     x="5222.4028"
     y="12122.646"
     style="stroke-width:746.70709229">MEASUREMENT</tspan></text>

<path
   style="opacity:1;vector-effect:none;fill:none;fill-opacity:1;stroke:#000000;stroke-width:26.45833206px;stroke-linecap:butt;stroke-linejoin:miter;stroke-miterlimit:4;stroke-dasharray:none;stroke-dashoffset:0;stroke-opacity:1"
   d="M 1919.0758,4058.6503 H 6354.9722"
   id="path3901"
   inkscape:connector-curvature="0" /><text
   xml:space="preserve"
   style="font-style:normal;font-weight:normal;font-size:352.777771px;line-height:1.25;font-family:sans-serif;letter-spacing:0px;word-spacing:0px;fill:#000000;fill-opacity:1;stroke:none;stroke-width:746.70709229"
   x="2018.7671"
   y="4482.521"
   id="text3907"><tspan
     sodipodi:role="line"
     id="tspan3905"
     x="2018.7671"
     y="4482.521"
     style="font-size:282.222229px;stroke-width:746.70709229">+group_system_info</tspan><tspan
     sodipodi:role="line"
     x="2018.7671"
     y="4923.4932"
     style="font-size:282.222229px;stroke-width:746.70709229"
     id="tspan3909" /><tspan
     sodipodi:role="line"
     x="2018.7671"
     y="5364.4653"
     style="font-size:282.222229px;stroke-width:746.70709229"
     id="tspan3911" /><tspan
     sodipodi:role="line"
     x="2018.7671"
     y="5805.4375"
     style="font-size:282.222229px;stroke-width:746.70709229"
     id="tspan3913" /></text>

<text
   xml:space="preserve"
   style="font-style:normal;font-weight:normal;font-size:282.222229px;line-height:1.25;font-family:sans-serif;text-align:start;letter-spacing:0px;word-spacing:0px;writing-mode:lr-tb;text-anchor:start;fill:#000000;fill-opacity:1;stroke:none;stroke-width:746.70709229"
   x="8661.3018"
   y="2869.3486"
   id="text3917"><tspan
     sodipodi:role="line"
     x="8661.3018"
     y="2869.3486"
     style="font-size:282.222229px;text-align:start;writing-mode:lr-tb;text-anchor:start;stroke-width:746.70709229"
     id="tspan3919">-system_parameters{</tspan><tspan
     sodipodi:role="line"
     x="8661.3018"
     y="3222.1265"
     style="font-size:282.222229px;text-align:start;writing-mode:lr-tb;text-anchor:start;stroke-width:746.70709229"
     id="tspan3927">            </tspan><tspan
     sodipodi:role="line"
     x="8661.3018"
     y="3574.9043"
     style="font-size:282.222229px;text-align:start;writing-mode:lr-tb;text-anchor:start;stroke-width:746.70709229"
     id="tspan3925" /><tspan
     sodipodi:role="line"
     x="8661.3018"
     y="3927.6819"
     style="font-size:282.222229px;text-align:start;writing-mode:lr-tb;text-anchor:start;stroke-width:746.70709229"
     id="tspan3923" /></text>

<path
   style="opacity:1;vector-effect:none;fill:none;fill-opacity:1;stroke:#000000;stroke-width:26.50969696px;stroke-linecap:butt;stroke-linejoin:miter;stroke-miterlimit:4;stroke-dasharray:none;stroke-dashoffset:0;stroke-opacity:1"
   d="M 8525.168,4058.6509 H 12969.28"
   id="path3937"
   inkscape:connector-curvature="0" /><text
   xml:space="preserve"
   style="font-style:normal;font-weight:normal;font-size:282.222229px;line-height:1.25;font-family:sans-serif;letter-spacing:0px;word-spacing:0px;fill:#000000;fill-opacity:1;stroke:none;stroke-width:746.70709229"
   x="8613.4238"
   y="4477.8867"
   id="text3941"><tspan
     sodipodi:role="line"
     id="tspan3939"
     x="8613.4238"
     y="4477.8867"
     style="stroke-width:746.70709229">+sys_info_set_voltage_cutoff()</tspan><tspan
     sodipodi:role="line"
     x="8613.4238"
     y="4830.6646"
     style="stroke-width:746.70709229"
     id="tspan4011" /><tspan
     sodipodi:role="line"
     x="8613.4238"
     y="5183.4424"
     style="stroke-width:746.70709229"
     id="tspan3945" /><tspan
     sodipodi:role="line"
     x="8613.4238"
     y="5536.2202"
     style="stroke-width:746.70709229"
     id="tspan3947" /><tspan
     sodipodi:role="line"
     x="8613.4238"
     y="5888.998"
     style="stroke-width:746.70709229"
     id="tspan3949" /><tspan
     sodipodi:role="line"
     x="8613.4238"
     y="6241.7759"
     style="stroke-width:746.70709229"
     id="tspan3951" /><tspan
     sodipodi:role="line"
     x="8613.4238"
     y="6594.5532"
     style="stroke-width:746.70709229"
     id="tspan3953" /><tspan
     sodipodi:role="line"
     x="8613.4238"
     y="6947.3311"
     style="stroke-width:746.70709229"
     id="tspan3955" /><tspan
     sodipodi:role="line"
     x="8613.4238"
     y="7300.1089"
     style="stroke-width:746.70709229"
     id="tspan3963" /></text>

<text
   xml:space="preserve"
   style="font-style:normal;font-weight:normal;font-size:282.222229px;line-height:1.25;font-family:sans-serif;letter-spacing:0px;word-spacing:0px;fill:#000000;fill-opacity:1;stroke:none;stroke-width:746.70709229"
   x="10941.978"
   y="6274.2627"
   id="text3959"><tspan
     sodipodi:role="line"
     id="tspan3957"
     x="10941.978"
     y="6523.9634"
     style="stroke-width:746.70709229" /></text>

<text
   xml:space="preserve"
   style="font-style:normal;font-weight:normal;font-size:282.222229px;line-height:1.25;font-family:sans-serif;letter-spacing:0px;word-spacing:0px;fill:#000000;fill-opacity:1;stroke:none;stroke-width:746.70709229"
   x="5392.0894"
   y="12651.857"
   id="text3967"><tspan
     sodipodi:role="line"
     id="tspan3965"
     x="5392.0894"
     y="12651.857"
     style="stroke-width:746.70709229">-group_voltage{</tspan><tspan
     sodipodi:role="line"
     x="5392.0894"
     y="13004.635"
     style="stroke-width:746.70709229"
     id="tspan3973">       </tspan><tspan
     sodipodi:role="line"
     x="5392.0894"
     y="13357.413"
     style="stroke-width:746.70709229"
     id="tspan3975" /><tspan
     sodipodi:role="line"
     x="5392.0894"
     y="13710.19"
     style="stroke-width:746.70709229"
     id="tspan3971" /></text>

<text
   xml:space="preserve"
   style="font-style:normal;font-weight:normal;font-size:282.222229px;line-height:1.25;font-family:sans-serif;letter-spacing:0px;word-spacing:0px;fill:#000000;fill-opacity:1;stroke:none;stroke-width:746.70709229"
   x="5379.2266"
   y="13295.011"
   id="text3981"><tspan
     sodipodi:role="line"
     id="tspan3979"
     x="5379.2266"
     y="13295.011"
     style="stroke-width:746.70709229">-group_current{</tspan><tspan
     sodipodi:role="line"
     x="5379.2266"
     y="13647.788"
     style="stroke-width:746.70709229"
     id="tspan3983">       </tspan></text>

<path
   style="opacity:1;vector-effect:none;fill:none;fill-opacity:1;stroke:#000000;stroke-width:26.45833206px;stroke-linecap:butt;stroke-linejoin:miter;stroke-miterlimit:4;stroke-dasharray:none;stroke-dashoffset:0;stroke-opacity:1"
   d="M 5209.55,13989.618 H 9660.1776"
   id="path3987"
   inkscape:connector-curvature="0" /><text
   xml:space="preserve"
   style="font-style:normal;font-weight:normal;font-size:282.222229px;line-height:1.25;font-family:sans-serif;letter-spacing:0px;word-spacing:0px;fill:#000000;fill-opacity:1;stroke:none;stroke-width:746.70709229"
   x="5313.3027"
   y="14324.058"
   id="text3991"><tspan
     sodipodi:role="line"
     id="tspan3989"
     x="5313.3027"
     y="14324.058"
     style="stroke-width:746.70709229">+meas_voltage_gen()</tspan><tspan
     sodipodi:role="line"
     x="5313.3027"
     y="14676.835"
     style="stroke-width:746.70709229"
     id="tspan4009" /></text>

<flowRoot
   xml:space="preserve"
   id="flowRoot4019"
   style="fill:black;fill-opacity:1;stroke:none;font-family:sans-serif;font-style:normal;font-weight:normal;font-size:10.66666667px;line-height:1.25;letter-spacing:0px;word-spacing:0px"><flowRegion
     id="flowRegion4021"><rect
       id="rect4023"
       width="19.594877"
       height="44.518188"
       x="317.47141"
       y="145.86662" /></flowRegion><flowPara
     id="flowPara4025" /></flowRoot><text
   xml:space="preserve"
   style="font-style:normal;font-weight:normal;font-size:282.222229px;line-height:1.25;font-family:sans-serif;letter-spacing:0px;word-spacing:0px;fill:#000000;fill-opacity:1;stroke:none;stroke-width:746.70709229"
   x="8613.5098"
   y="4755.3027"
   id="text4031"><tspan
     sodipodi:role="line"
     id="tspan4029"
     x="8613.5098"
     y="4755.3027"
     style="stroke-width:746.70709229">+sys_info_set_type_battery()</tspan></text>

<text
   xml:space="preserve"
   style="font-style:normal;font-weight:normal;font-size:282.222229px;line-height:1.25;font-family:sans-serif;letter-spacing:0px;word-spacing:0px;fill:#000000;fill-opacity:1;stroke:none;stroke-width:746.70709229"
   x="8618.0576"
   y="5036.0664"
   id="text4035"><tspan
     sodipodi:role="line"
     id="tspan4033"
     x="8618.0576"
     y="5036.0664"
     style="stroke-width:746.70709229">+sys_info_set_charging_type()</tspan></text>

<text
   xml:space="preserve"
   style="font-style:normal;font-weight:normal;font-size:282.222229px;line-height:1.25;font-family:sans-serif;letter-spacing:0px;word-spacing:0px;fill:#000000;fill-opacity:1;stroke:none;stroke-width:746.70709229"
   x="8622.6055"
   y="5928.6313"
   id="text4039"><tspan
     sodipodi:role="line"
     id="tspan4037"
     x="8622.6055"
     y="5928.6313"
     style="stroke-width:746.70709229">+sys_info_get_voltage_cutoff()</tspan></text>

<text
   xml:space="preserve"
   style="font-style:normal;font-weight:normal;font-size:282.222229px;line-height:1.25;font-family:sans-serif;letter-spacing:0px;word-spacing:0px;fill:#000000;fill-opacity:1;stroke:none;stroke-width:746.70709229"
   x="8618.0576"
   y="6215.1421"
   id="text4043"><tspan
     sodipodi:role="line"
     id="tspan4041"
     x="8618.0576"
     y="6215.1421"
     style="stroke-width:746.70709229">+sys_info_get_type_battery()</tspan></text>

<text
   xml:space="preserve"
   style="font-style:normal;font-weight:normal;font-size:282.222229px;line-height:1.25;font-family:sans-serif;letter-spacing:0px;word-spacing:0px;fill:#000000;fill-opacity:1;stroke:none;stroke-width:746.70709229"
   x="8620.332"
   y="6494.8306"
   id="text4047"><tspan
     sodipodi:role="line"
     id="tspan4045"
     x="8620.332"
     y="6494.8306"
     style="stroke-width:746.70709229">+sys_info_get_charging_type()</tspan></text>

<text
   xml:space="preserve"
   style="font-style:normal;font-weight:normal;font-size:282.222229px;line-height:1.25;font-family:sans-serif;letter-spacing:0px;word-spacing:0px;fill:#000000;fill-opacity:1;stroke:none;stroke-width:746.70709229"
   x="8614.6465"
   y="7629.5034"
   id="text4053"><tspan
     sodipodi:role="line"
     id="tspan4051"
     x="8614.6465"
     y="7629.5034"
     style="stroke-width:746.70709229">+etc.</tspan></text>

<text
   xml:space="preserve"
   style="font-style:normal;font-weight:normal;font-size:282.222229px;line-height:1.25;font-family:sans-serif;letter-spacing:0px;word-spacing:0px;fill:#000000;fill-opacity:1;stroke:none;stroke-width:746.70709229"
   x="2018.5265"
   y="4732.6968"
   id="text4059"><tspan
     sodipodi:role="line"
     id="tspan4057"
     x="2018.5265"
     y="4732.6968"
     style="stroke-width:746.70709229">+group_meas</tspan></text>

<text
   xml:space="preserve"
   style="font-style:normal;font-weight:normal;font-size:282.222229px;line-height:1.25;font-family:sans-serif;letter-spacing:0px;word-spacing:0px;fill:#000000;fill-opacity:1;stroke:none;stroke-width:746.70709229"
   x="2013.009"
   y="5013.2563"
   id="text4063"><tspan
     sodipodi:role="line"
     id="tspan4061"
     x="2013.009"
     y="5013.2563"
     style="stroke-width:746.70709229">+group_display</tspan></text>

<text
   xml:space="preserve"
   style="font-style:normal;font-weight:normal;font-size:282.222229px;line-height:1.25;font-family:sans-serif;letter-spacing:0px;word-spacing:0px;fill:#000000;fill-opacity:1;stroke:none;stroke-width:746.70709229"
   x="2011.9056"
   y="5277.2949"
   id="text4067"><tspan
     sodipodi:role="line"
     id="tspan4065"
     x="2011.9056"
     y="5277.2949"
     style="stroke-width:746.70709229">+group_menu</tspan></text>

<text
   xml:space="preserve"
   style="font-style:normal;font-weight:normal;font-size:282.222229px;line-height:1.25;font-family:sans-serif;letter-spacing:0px;word-spacing:0px;fill:#000000;fill-opacity:1;stroke:none;stroke-width:746.70709229"
   x="9769.5137"
   y="3158.2349"
   id="text4071"><tspan
     sodipodi:role="line"
     id="tspan4069"
     x="9769.5137"
     y="3158.2349"
     style="stroke-width:746.70709229">voltage_cutoff,</tspan></text>

<text
   xml:space="preserve"
   style="font-style:normal;font-weight:normal;font-size:282.222229px;line-height:1.25;font-family:sans-serif;letter-spacing:0px;word-spacing:0px;fill:#000000;fill-opacity:1;stroke:none;stroke-width:746.70709229"
   x="9795.2402"
   y="3448.3186"
   id="text4075"><tspan
     sodipodi:role="line"
     id="tspan4073"
     x="9795.2402"
     y="3448.3186"
     style="stroke-width:746.70709229">type_bat,</tspan></text>

<text
   xml:space="preserve"
   style="font-style:normal;font-weight:normal;font-size:282.222229px;line-height:1.25;font-family:sans-serif;letter-spacing:0px;word-spacing:0px;fill:#000000;fill-opacity:1;stroke:none;stroke-width:746.70709229"
   x="9795.2402"
   y="3744.1697"
   id="text4087"><tspan
     sodipodi:role="line"
     id="tspan4085"
     x="9795.2402"
     y="3744.1697"
     style="stroke-width:746.70709229">etc.}</tspan></text>

<text
   xml:space="preserve"
   style="font-style:normal;font-weight:normal;font-size:282.222229px;line-height:1.25;font-family:sans-serif;letter-spacing:0px;word-spacing:0px;fill:#000000;fill-opacity:1;stroke:none;stroke-width:746.70709229"
   x="5966.6973"
   y="12977.702"
   id="text4091"><tspan
     sodipodi:role="line"
     id="tspan4089"
     x="5966.6973"
     y="12977.702"
     style="stroke-width:746.70709229">gen, input1, main, etc.}</tspan></text>

<text
   xml:space="preserve"
   style="font-style:normal;font-weight:normal;font-size:282.222229px;line-height:1.25;font-family:sans-serif;letter-spacing:0px;word-spacing:0px;fill:#000000;fill-opacity:1;stroke:none;stroke-width:746.70709229"
   x="5959.1626"
   y="13614.393"
   id="text4095"><tspan
     sodipodi:role="line"
     id="tspan4093"
     x="5959.1626"
     y="13614.393"
     style="stroke-width:746.70709229">charger, consuption,etc}</tspan></text>

<text
   xml:space="preserve"
   style="font-style:normal;font-weight:normal;font-size:282.222229px;line-height:1.25;font-family:sans-serif;letter-spacing:0px;word-spacing:0px;fill:#000000;fill-opacity:1;stroke:none;stroke-width:746.70709229"
   x="5311.8159"
   y="14633.097"
   id="text4101"><tspan
     sodipodi:role="line"
     id="tspan4099"
     x="5311.8159"
     y="14633.097"
     style="stroke-width:746.70709229">+meas_voltage_input1()</tspan></text>

<text
   xml:space="preserve"
   style="font-style:normal;font-weight:normal;font-size:282.222229px;line-height:1.25;font-family:sans-serif;letter-spacing:0px;word-spacing:0px;fill:#000000;fill-opacity:1;stroke:none;stroke-width:746.70709229"
   x="5314.0903"
   y="14921.882"
   id="text4105"><tspan
     sodipodi:role="line"
     id="tspan4103"
     x="5314.0903"
     y="14921.882"
     style="stroke-width:746.70709229">+meas_voltage_input2()</tspan></text>

<text
   xml:space="preserve"
   style="font-style:normal;font-weight:normal;font-size:282.222229px;line-height:1.25;font-family:sans-serif;letter-spacing:0px;word-spacing:0px;fill:#000000;fill-opacity:1;stroke:none;stroke-width:746.70709229"
   x="5309.542"
   y="15233.405"
   id="text4109"><tspan
     sodipodi:role="line"
     id="tspan4107"
     x="5309.542"
     y="15233.405"
     style="stroke-width:746.70709229">+meas_voltage_mains()</tspan></text>

<text
   xml:space="preserve"
   style="font-style:normal;font-weight:normal;font-size:282.222229px;line-height:1.25;font-family:sans-serif;letter-spacing:0px;word-spacing:0px;fill:#000000;fill-opacity:1;stroke:none;stroke-width:746.70709229"
   x="5315.8511"
   y="16178.068"
   id="text4113"><tspan
     sodipodi:role="line"
     id="tspan4111"
     x="5315.8511"
     y="16178.068"
     style="stroke-width:746.70709229">+meas_current_charger()</tspan></text>

<text
   xml:space="preserve"
   style="font-style:normal;font-weight:normal;font-size:282.222229px;line-height:1.25;font-family:sans-serif;letter-spacing:0px;word-spacing:0px;fill:#000000;fill-opacity:1;stroke:none;stroke-width:746.70709229"
   x="5314.48"
   y="16442.391"
   id="text4117"><tspan
     sodipodi:role="line"
     id="tspan4115"
     x="5314.48"
     y="16442.391"
     style="stroke-width:746.70709229">+meas_current_consuption()</tspan></text>

<text
   xml:space="preserve"
   style="font-style:normal;font-weight:normal;font-size:282.222229px;line-height:1.25;font-family:sans-serif;letter-spacing:0px;word-spacing:0px;fill:#000000;fill-opacity:1;stroke:none;stroke-width:746.70709229"
   x="5315.7148"
   y="17232.723"
   id="text4147"><tspan
     sodipodi:role="line"
     id="tspan4145"
     x="5315.7148"
     y="17232.723"
     style="stroke-width:746.70709229">+etc.</tspan></text>

<path
   style="opacity:1;vector-effect:none;fill:none;fill-opacity:1;stroke:#000000;stroke-width:26.45833206px;stroke-linecap:butt;stroke-linejoin:miter;stroke-miterlimit:4;stroke-dasharray:none;stroke-dashoffset:0;stroke-opacity:1"
   d="m 16699.477,4058.6509 h 4447.736"
   id="path4149"
   inkscape:connector-curvature="0" /><text
   xml:space="preserve"
   style="font-style:normal;font-weight:normal;font-size:282.222229px;line-height:1.25;font-family:sans-serif;letter-spacing:0px;word-spacing:0px;fill:#000000;fill-opacity:1;stroke:none;stroke-width:746.70709229"
   x="23539.35"
   y="2999.8557"
   id="text4153"><tspan
     sodipodi:role="line"
     id="tspan4151"
     x="23539.35"
     y="2999.8557"
     style="stroke-width:746.70709229">-screen_t{</tspan><tspan
     sodipodi:role="line"
     x="23539.35"
     y="3352.6335"
     style="stroke-width:746.70709229"
     id="tspan4155">     </tspan></text>

<path
   style="fill:#000000;fill-opacity:0;stroke:#ffffff;stroke-width:746.70709229;stroke-opacity:1"
   id="path4157"
   d="m 22148.149,2967.496 c 45.926,35.0811 74.691,86.4441 105.31,134.3237 35.944,63.7592 71.361,128.1308 95.644,197.3323 16.139,47.8544 20.513,97.5423 19.067,147.6526 -1.368,37.5996 -12.825,73.0911 -28.671,106.8546 -34.638,52.8584 -99.058,91.2048 -162.52,95.7019 -26.095,1.2144 -50.348,-11.5401 -73.135,-22.7666 -33.335,-16.6537 -61.628,-39.4031 -87.22,-66.1921 -56.467,-64.4597 -107.957,-132.9682 -155.754,-204.0327 -46.684,-75.3427 -84.073,-156.0822 -107.431,-241.581 -13.798,-57.291 -17.973,-116.1618 -19.814,-174.8686 -3.346,-41.0853 5.261,-80.2482 18.818,-118.6744 18.073,-43.5872 48.059,-80.5979 78.093,-116.446 37.871,-42.1548 79.356,-80.7908 120.359,-119.8299 31.691,-30.1495 66.645,-56.5263 100.238,-84.4641 52.718,-40.7783 109.151,-86.6864 176.454,-94.6956 12.831,-2.1982 24.96,0.1852 37.497,2.6069 0,0 -110.168,77.4156 -110.168,77.4156 v 0 c -11.693,-1.4417 -23.243,-1.5404 -34.854,0.9586 -7.681,1.7899 -10.29,2.0902 -17.697,5.0826 -3.114,1.2579 -12.02,5.9693 -9.134,4.251 190.24,-113.2952 119.665,-73.252 81.348,-45.4625 -33.958,28.4846 -69.824,54.6548 -102.614,84.5144 -40.81,38.7652 -82.092,77.0589 -120.408,118.3368 -29.755,34.5625 -59.193,70.2545 -78.889,111.7185 -14.14,36.9083 -24.347,74.5402 -21.625,114.5502 0.612,58.1253 3.032,116.4987 15.875,173.4294 21.736,84.5532 56.807,164.9812 103.081,239.1132 47.858,70.3458 99.758,137.9781 158.982,199.2413 25.717,24.6322 53.889,45.9079 86.111,61.4762 22.111,9.9952 44.972,20.1046 69.793,15.6708 46.571,-9.6518 90.626,-50.1815 -91.276,58.1958 -2.633,1.569 5.782,-2.1272 8.43,-3.67 8.204,-4.7773 9.267,-7.3567 15.549,-14.6944 18.179,-31.2719 29.813,-66.0802 32.725,-102.244 2.255,-48.7434 -0.904,-97.1926 -15.399,-144.1656 -22.647,-68.7139 -56.439,-132.8709 -92.811,-195.2678 -30.038,-45.8579 -59.021,-96.5272 -106.906,-125.9475 0,0 112.952,-73.4237 112.952,-73.4237 z"
   inkscape:connector-curvature="0" /><path
   style="opacity:1;vector-effect:none;fill:none;fill-opacity:1;stroke:#000000;stroke-width:26.45833206px;stroke-linecap:butt;stroke-linejoin:miter;stroke-miterlimit:4;stroke-dasharray:none;stroke-dashoffset:0;stroke-opacity:1"
   d="m 23423.68,4058.6509 h 4424.901"
   id="path4970"
   inkscape:connector-curvature="0" /><text
   xml:space="preserve"
   style="font-style:normal;font-weight:normal;font-size:282.222229px;line-height:1.25;font-family:sans-serif;letter-spacing:0px;word-spacing:0px;fill:#000000;fill-opacity:1;stroke:none;stroke-width:746.70709229"
   x="23957.746"
   y="3306.8315"
   id="text186"><tspan
     sodipodi:role="line"
     id="tspan184"
     x="23957.746"
     y="3306.8315"
     style="stroke-width:746.70709229">size, font, coordinates, etc}</tspan></text>
</svg>